<svg width="62" height="15" viewBox="0 0 62 15" xmlns="http://www.w3.org/2000/svg"><path d="M12.542.276l.072 4.059-.713.206c-.713-2.064-1.71-3.233-3.634-3.233H5.773a115.35 115.35 0 0 0-.143 5.848l1.71-.068c1.07 0 1.568-.826 1.782-1.996h.641v4.885h-.641c-.214-1.17-.713-1.995-1.782-1.995l-1.71-.069c0 1.789.07 3.233.143 4.128.142 1.307.498 1.927 1.425 1.995l.855.139v.55H0v-.55l.713-.139c.926-.068 1.282-.688 1.424-1.995.144-2.132.215-6.605 0-9.081C1.995 1.652 1.64 1.1.713.964L0 .894V.277h12.542zm25.228 3.99c2.423 0 4.276 2.064 4.276 4.886 0 3.578-2.28 5.848-6.057 5.848-1.355 0-2.709-.206-3.991-.482.071-1.445.142-10.252 0-11.903-.143-.826-.356-1.17-.998-1.307l-.499-.07V.827L35.276 0c-.072.689-.072 2.684-.072 4.885.785-.413 1.568-.62 2.566-.62zm-21.166-.137c3.564 0 5.346 2.339 5.346 5.435 0 2.959-1.996 5.436-5.56 5.436-3.563 0-5.344-2.34-5.344-5.436 0-2.958 1.996-5.435 5.558-5.435zm26.368 5.504c0-2.82 1.853-5.505 5.488-5.505 2.993 0 4.419 2.134 4.419 4.955H46.25c-.07 2.545 1.212 4.403 3.778 4.403 1.14 0 1.71-.274 2.423-.757l.285.344c-.713.963-2.28 1.927-4.276 1.927-3.207 0-5.488-2.202-5.488-5.367zM61.358 4.68l.072 2.683-.498.137c-.642-1.858-1.497-2.615-2.78-2.615-.855 0-1.497.62-1.497 1.514 0 .895.712 1.377 2.708 2.133C61.216 9.22 62 10.046 62 11.491 62 13.623 60.219 15 57.44 15c-1.355 0-2.923-.275-3.778-.619l-.071-3.028.498-.138c.785 2.064 1.783 2.821 3.136 2.821 1.14 0 1.782-.757 1.782-1.582 0-.826-.5-1.308-2.28-1.926-1.711-.551-2.922-1.308-2.922-3.096 0-1.79 1.64-3.304 4.275-3.304 1.283 0 2.423.207 3.278.552zm-30.144-.276l-1.14 2.82c-1.426-.894-2.993-.48-3.35 0-.07 1.653-.07 4.266.071 5.575.072.825.286 1.237.998 1.306l.855.07v.55h-6.627v-.55l.499-.07c.641-.069.926-.481.997-1.306.072-1.445.143-4.336 0-5.987-.07-.895-.356-1.238-.997-1.307l-.5-.07v-.412l4.775-.894-.07 2.408c1.14-2.477 3.278-2.821 4.489-2.133zm4.917 9.839c1.496 0 2.565-2.133 2.565-4.886 0-2.201-.855-3.99-2.423-3.99-.356 0-.64.069-1.069.207-.07 3.578 0 7.637.072 8.6.214.069.57.069.855.069zm-19.74-9.426c-1.568 0-1.996 2.064-1.996 4.747 0 2.615.713 4.748 2.139 4.748 1.638 0 2.067-2.064 2.067-4.748 0-2.615-.713-4.747-2.21-4.747zm29.86 3.51l3.349-.07c0-1.376-.214-3.44-1.425-3.44-1.212 0-1.853 1.926-1.925 3.51z" fill="#6286A2" fill-rule="evenodd"/></svg>