<svg width="28" height="37" viewBox="0 0 28 37" xmlns="http://www.w3.org/2000/svg"><g fill="none"><path d="M27.011 10.134v24.482A2.393 2.393 0 0 1 24.609 37H2.403A2.393 2.393 0 0 1 0 34.616V2.384A2.393 2.393 0 0 1 2.403 0h14.393l10.215 10.134z" fill="#518EF8"/><path fill="#FFF" d="M6.323 18.049h13.812v1.522H6.323zm0 3.61h13.812v1.522H6.323zm0 3.609h13.812v1.523H6.323zm0 3.61h9.823v1.523H6.323z"/><path fill="#3A5BBC" d="M18.065 9.367l8.82 3.605V9.587l-5-1.465z"/><path d="M27.376 10.134h-7.812a2.393 2.393 0 0 1-2.403-2.383V0l10.215 10.134z" fill="#ACD1FC"/></g></svg>