<svg width="37" height="29" viewBox="0 0 37 29" xmlns="http://www.w3.org/2000/svg"><defs><linearGradient x1="15.233%" y1="-4.165%" x2="83.301%" y2="96.335%" id="a"><stop stop-opacity=".1" offset="0%"/><stop stop-opacity="0" offset="100%"/></linearGradient></defs><g fill="none"><path d="M34.39 27.711H2.293A2.297 2.297 0 0 1 0 25.424V2.287A2.297 2.297 0 0 1 2.293 0H34.39a2.297 2.297 0 0 1 2.293 2.287v23.137a2.276 2.276 0 0 1-2.293 2.287z" fill="#E3E3E3"/><path fill="#231F20" opacity=".1" d="M4.86 28.064L18.583 17.05l.099-.588L4.532 6.3 4.5 27.573z"/><path d="M2.293 27.86A2.276 2.276 0 0 1 0 25.571V2.403C0 1.13 1.015.9 2.293.9c1.277 0 2.292.261 2.292 1.503V27.86H2.293z" fill="#D54B3D"/><path d="M2.293 1.227c1.637 0 1.965.49 1.965 1.176v25.13H2.293a1.969 1.969 0 0 1-1.965-1.961V2.403c0-.719.327-1.176 1.965-1.176zm0-.327C1.015.9 0 1.161 0 2.403v23.169a2.276 2.276 0 0 0 2.293 2.287h2.292V2.403C4.585 1.13 3.57.9 2.293.9z" fill="#D72B27"/><path d="M34.693 27.86H32.4V2.337C32.4 1.063 33.415.9 34.693.9c1.277 0 2.292.163 2.292 1.438v23.267c0 1.241-1.015 2.254-2.292 2.254z" fill="#D54B3D"/><path d="M34.693 1.227c1.474 0 1.965.294 1.965 1.11v23.268c0 1.078-.885 1.96-1.965 1.96h-1.965V2.338c0-.85.49-1.111 1.965-1.111zm0-.327c-1.278 0-2.293.163-2.293 1.438v25.554h2.293a2.276 2.276 0 0 0 2.292-2.287V2.338C36.985 1.063 35.97.9 34.693.9z" fill="#D72B27"/><path d="M24.372 27.844L0 3.338l1.282.52 16.966 12.189L36.49 2.7v22.889c0 1.242-1.016 2.255-2.293 2.255h-9.826z" fill="url(#a)"/><path d="M18.305 16.814L.98 4.265C-.036 3.514-.33 2.075.423 1.063 1.176.05 2.65-.18 3.698.573l14.64 10.62L33.077.442c1.015-.752 2.456-.523 3.21.523.753 1.013.523 2.45-.525 3.202L18.305 16.814z" fill="#D54B3D"/><path d="M34.395.327c.622 0 1.211.294 1.605.817a2.004 2.004 0 0 1-.426 2.745l-17.26 12.548L1.183 4.02C.3 3.366.07 2.124.693 1.274c.36-.49.982-.817 1.637-.817.426 0 .852.131 1.18.393l14.607 10.587.196.131.197-.13L33.216.685a2.17 2.17 0 0 1 1.179-.36zm0-.327c-.459 0-.95.13-1.343.425l-14.739 10.75L3.673.556C3.28.262 2.789.132 2.297.132a2.36 2.36 0 0 0-1.9.947c-.72 1.013-.425 2.451.59 3.203l17.326 12.58L35.737 4.184A2.324 2.324 0 0 0 36.262.98 2.246 2.246 0 0 0 34.395 0z" fill="#D72B27"/></g></svg>