<svg width="39" height="40" viewBox="0 0 39 40" xmlns="http://www.w3.org/2000/svg"><defs><linearGradient x1="91.867%" y1="40.328%" x2="28.264%" y2="81.66%" id="a"><stop stop-color="#0052CC" offset="18%"/><stop stop-color="#2684FF" offset="100%"/></linearGradient><linearGradient x1="8.71%" y1="59.166%" x2="72.243%" y2="17.99%" id="b"><stop stop-color="#0052CC" offset="18%"/><stop stop-color="#2684FF" offset="100%"/></linearGradient></defs><g fill="none" fill-rule="evenodd"><path d="M38.157 18.821L20.976 1.663 19.31 0 6.377 12.916.464 18.82a1.577 1.577 0 0 0 0 2.232l11.816 11.8 7.03 7.02 12.934-12.915.2-.2 5.713-5.705a1.577 1.577 0 0 0 0-2.232zm-18.847 7.01l-5.902-5.894 5.902-5.895 5.903 5.895-5.903 5.895z" fill="#2684FF" fill-rule="nonzero"/><path d="M19.31 14.042A9.917 9.917 0 0 1 19.268.047L6.351 12.942l7.03 7.021 5.93-5.92z" fill="url(#a)"/><path d="M25.229 19.921l-5.919 5.91a9.92 9.92 0 0 1 0 14.043l12.95-12.932-7.031-7.02z" fill="url(#b)"/></g></svg>