<svg width="31" height="29" viewBox="0 0 31 29" xmlns="http://www.w3.org/2000/svg"><path d="M31 29h-6.851V18.805c0-2.668-1.072-4.49-3.429-4.49-1.802 0-2.805 1.23-3.272 2.414-.175.426-.147 1.018-.147 1.61V29h-6.788s.088-18.059 0-19.7h6.788v3.091c.4-1.351 2.57-3.28 6.031-3.28 4.294 0 7.668 2.833 7.668 8.935V29zM3.649 6.835h-.044C1.418 6.835 0 5.33 0 3.42 0 1.474 1.46 0 3.69 0s3.6 1.47 3.644 3.415c0 1.909-1.414 3.42-3.685 3.42zM.782 9.3h6.042V29H.782V9.3z" fill="#007EBB" fill-rule="evenodd"/></svg>