<svg width="34" height="34" viewBox="0 0 34 34" xmlns="http://www.w3.org/2000/svg"><path d="M0 0h34v34H0V0zm8.114 11.37v10.096a1.16 1.16 0 0 1-.31 1.002l-2.399 2.91v.384h6.803v-.383l-2.399-2.91a1.204 1.204 0 0 1-.33-1.003v-8.73l5.971 13.026h.693l5.13-13.027V23.12c0 .277 0 .33-.182.511l-1.845 1.791v.384h8.958v-.384l-1.781-1.748a.533.533 0 0 1-.203-.512V10.316a.533.533 0 0 1 .203-.512l1.823-1.748v-.384h-6.313l-4.5 11.225-5.118-11.225H5.693v.384l2.133 2.569c.21.188.316.466.288.746z" fill="#12100E"/></svg>