<svg width="146" height="21" viewBox="0 0 146 21" xmlns="http://www.w3.org/2000/svg"><g fill="#6C82A7" fill-rule="evenodd"><path d="M9.022.271c.408.037 1.049.24 1.532.668.513.505.63 1.27.45 1.965-.16.62-.339.942-.963 1.37-.632.431-1.395.395-1.395.395v2.685l1.29 1.057-1.29 1.054v3.657s1.293-.75 2.095-2.43c0 0 .033-.091.108-.264.071.45.03 1.36-.472 2.53-.38.88-1.069 1.728-1.933 2.21-1.532.86-2.681.943-3.913.684a5.55 5.55 0 0 1-3.646-2.551c-.628-1.005-.91-2.177-.883-3.438.05-2.476 1.87-4.61 3.97-5.407.256-.097.357-.16.72-.194-.167.115-.36.264-.597.422-.677.45-1.256 1.346-1.504 2.035l4.077-1.84v5.768L3.38 12.314c.375.525 1.513 1.321 2.487 1.434 1.656.185 2.628-.547 2.628-.547V9.465L7.21 8.41l1.284-1.054V4.669c-.7-.082-1.55-.316-2.048-.44-.73-.183-3.168-.875-3.552-.933-.382-.058-.855-.04-1.14.219-.287.261-.464.72-.342 1.133.069.233.228.37.348.504 0 0-.14-.012-.396-.167-.46-.28-.81-.826-.852-1.5A2.496 2.496 0 0 1 1.539 1.27C2.164.863 2.872.602 3.695.72c1.2.174 2.815.86 4.253 1.21.557.136.988.182 1.38-.05.182-.133.503-.476.24-.932-.306-.534-.892-.522-1.39-.616.428-.091.522-.091.844-.06M4.174 11.74V6.17l-1.655.746s-.422.957-.348 2.345c.058 1.085.657 2.382 1.117 2.925l.886-.446m20.659-5.841s-1.249.765-2.089 1.273c-.84.504-1.966 1.06-1.966 1.06v5.315l-.752.61.1.119.733-.598 2.297 2.101 3.993-3.2-.095-.116-2.206 1.752-1.814-1.719v-.64l3.643-2.713-1.844-3.244zm.053 4.389l-1.852 1.373V7.093l1.852 3.195zm-10.518 7.49c.524.13 1.449.204 2.564-.362 1.234-.625 1.855-1.953 1.847-3.313l.052-1.929V7.961l.79-.61-.092-.119-.777.593-1.793-2.017-2.3 1.998v-6.79l-2.873 2.247c.128.082.535.158.547.738v9.513l-1.216.914.083.128.588-.444 1.636 1.54L16 13.577l-.094-.118-.605.486-.641-.644.006-5.3.75-.647 1.12 1.406s-.003 3.432 0 4.571c-.008 1.215-.012 2.73-.643 3.462-.63.736-.883.794-1.525.985m17.876-.48c-1.03-.119-1.461-.75-1.45-1.248.008-.32.294-.945.92-1.03.625-.088 1.264.21 1.804.85l2.377-2.657-.115-.104-.638.724a4.143 4.143 0 0 0-2.486-1.355V4.38l6.174 11.381s.059.13.313.13c.218 0 .166-.179.166-.179L39.308 4.26c.501-.021 1.267-.3 1.639-.686 1.189-1.237.703-2.585.573-2.716-.073.59-.52 1.182-1.268 1.185-.98.003-1.578-.729-1.578-.729l-2.375 2.74.113.103.68-.787c.832.774 1.438.847 2.066.89v6.645l-4.58-8.419c-.414-.695-1.046-1.306-2.035-1.315-1.138-.006-1.952 1.009-2.05 1.883-.11.987.012 1.215.012 1.215s.168-1.1.84-1.09c.604.009.918.57 1.16.993V6.61c-.622.042-2.244.115-2.343 1.822-.007.635.383 1.3.724 1.525.439.291.78.285.78.285s-.525-.282-.367-.841c.14-.501 1.17-.583 1.207-.374v3.442c-.495-.006-2.082.048-2.797 1.424-.431.832-.406 1.762.055 2.418.376.534 1.149 1.218 2.48.987M45.283 5.899s-1.25.765-2.09 1.273c-.84.504-1.966 1.06-1.966 1.06v5.315l-.751.61.1.119.732-.598 2.297 2.101 3.993-3.2-.095-.116-2.206 1.752-1.814-1.719v-.64l3.643-2.713-1.843-3.244zm.053 4.389l-1.853 1.373V7.093l1.853 3.195zm5.527 5.531l-1.957-1.647-.86.632-.087-.124.874-.647V9.431c.042-1.895-1.715-1.424-1.62-3.435.042-.883.888-1.552 1.314-1.773.457-.234.951-.234.951-.234s-.801.507-.607 1.236c.3 1.124 2.199 1.224 2.234 2.721v5.221l1.402 1.136.369-.291V8.359l-.756-.76 1.946-1.742 1.778 1.594-.678.744v5.009l1.665 1.39.296-.19v-6.03l-.758-.716 1.95-1.804 1.823 1.524.728-.653.099.116-1.64 1.457v4.915l-4.193 2.618-2.145-1.72-2.128 1.708m85.789-9.92s-1.25.765-2.088 1.273c-.841.504-1.968 1.06-1.968 1.06v5.315l-.751.61.1.119.733-.598 2.298 2.101 3.992-3.2-.094-.116-2.207 1.752-1.814-1.719v-.64l3.643-2.713-1.844-3.244zm.054 4.389l-1.853 1.373V7.093l1.852 3.195zm-18.798-2.166l.098.116.752-.656 1.116 1.278v4.392l-.542.501 1.74 1.99 1.784-1.78-.733-.769V7.882l.444-.358 1.233 1.458v4.38l-.463.467 1.637 1.865 1.752-1.773-.644-.684-.016-5.333.473-.39 1.286 1.434v4.356l-.423.428 1.808 1.996 2.428-2.27-.103-.111-.59.55-.904-1.015V7.91l.873-.672-.09-.121-.874.671-1.652-1.874-2.362 1.89-1.655-1.823-2.28 1.807-1.67-1.798z"/><path d="M112.965 7.986l.099.115.635-.556.993 1.19v5.021l-.7.62.097.116.736-.635 1.603 1.87 2.316-2.092-.098-.115-.682.607-.958-1.118V8.101l.808-.708-.098-.115-.767.668-1.686-1.99zm.668-4.158l1.744-1.616 1.417 1.591-1.75 1.61z"/><path d="M111.288.271c.409.037 1.05.24 1.533.668.513.505.63 1.27.45 1.965-.16.62-.339.942-.964 1.37-.631.431-1.395.395-1.395.395v2.685l1.291 1.057-1.29 1.054v3.657s1.292-.75 2.094-2.43c0 0 .034-.091.108-.264.072.45.032 1.36-.472 2.53-.379.88-1.068 1.728-1.933 2.21-1.531.86-2.68.943-3.911.684a5.546 5.546 0 0 1-3.647-2.551c-.628-1.005-.91-2.177-.883-3.438.05-2.476 1.87-4.61 3.97-5.407.255-.097.357-.16.72-.194-.167.115-.36.264-.597.422-.677.45-1.256 1.346-1.504 2.035l4.076-1.84v5.768l-3.287 1.667c.375.525 1.513 1.321 2.487 1.434 1.656.185 2.627-.547 2.627-.547V9.465l-1.283-1.054 1.284-1.054V4.669c-.7-.082-1.55-.316-2.047-.44-.732-.183-3.17-.875-3.553-.933-.383-.058-.855-.04-1.14.219-.287.261-.464.72-.342 1.133.069.233.227.37.348.504 0 0-.141-.012-.396-.167-.46-.28-.81-.826-.853-1.5a2.497 2.497 0 0 1 1.026-2.215c.626-.407 1.334-.668 2.157-.55 1.2.174 2.814.86 4.252 1.21.558.136.989.182 1.38-.05.183-.133.503-.476.241-.932-.306-.534-.892-.522-1.39-.616.428-.091.522-.091.843-.06m-4.846 11.468V6.17l-1.656.746s-.422.957-.348 2.345c.058 1.085.657 2.382 1.117 2.925l.886-.446m34.654 4.726c-.265.079-1.414-.204-1.69-1.41-.269-1.175.537-1.97 1.756-3.222l-1.438-1.33v-2.54s1.056-.534 1.884-1.057c.828-.525 1.676-1.093 1.676-1.093s.617.79 1.316.726c1.093-.097 1.042-.97 1.01-1.175.187.337.686 1.339-1.235 3.58l1.565 1.28v3.298s-1.818.956-3.536 2.226c0 0-.96-1.215-1.793-.635-.562.392-.305 1.054.485 1.352m-1.352-2.543s.826-1.381 2.244-1.084c1.361.286 1.833 1.74 1.833 1.74v-3.35l-.949-.835c-1.042 1.06-2.898 2.594-3.128 3.53m2.106-6.998v2.639l.868.765s1.885-1.527 2.57-2.943c0 0-.847 1.163-1.988.808-.955-.294-1.45-1.27-1.45-1.27M82.382 8.092l.704-.656.102.115-.686.644v5.246s-1.303.698-2.213 1.218c-.909.519-1.88 1.13-1.88 1.13l-2.391-2.039-.633.556-.102-.115.665-.586v-5.64h.009s1.128-.517 2.079-1.06c.851-.487 1.803-1.048 1.803-1.048l2.543 2.235zm-4.166 4.623l2.021 1.85V8.902l-2.02-1.892v5.704zm8.867-5.155l1.519-1.57s.209.185.404.283c.111.054.57.294.993.06.228-.127.26-.16.511-.4.052 1.22-.527 2.08-1.25 2.435-.296.146-1.16.426-2.064-.69v5.644l.962.86.802-.672.093.119-2.513 2.123-1.912-1.761-.688.655-.113-.121 1.048-.957.008-4.872-.803-1.078-.691.617-.1-.113 2.434-2.214 1.36 1.652m6.403 2.351l2.808-4.133s.37.443 1.016.616c.877.231 1.642-.626 1.642-.626-.146 1.106-.7 2.36-1.844 2.552-1.007.17-1.944-.623-1.944-.623l-.182.285 3.898 5.96.78-.693.101.116-2.676 2.365-3.599-5.819"/><path d="M91.167 4.393c0-.893-.362-1.443-.834-1.404L93.396.812v12.325l.81.862.612-.537.096.115-2.468 2.181-1.672-1.589-.67.596-.105-.116 1.168-1.03V4.394M65.56 4.19c0-.833-.333-1.298-.874-1.31-.779-.018-.964 1.094-.964 1.094s-.141-.857.567-1.635c.398-.434 1.141-1.044 2.303-.762 1.2.295 1.54 1.236 1.54 2.068v11.466a9.54 9.54 0 0 1 1.467.298V1.583h.15v1.865l2.46-2.005 1.801 1.622.84-.735.096.116-.878.765v10.661c-.043.695-.154 1.403-.803 1.81-1.448.869-3.194-.133-4.75-.361-1.154-.173-2.966-.395-3.421.677a1 1 0 0 0 .385 1.251c1.051.711 5.731-1.193 7.337-.437 1.463.69 1.458 1.78 1.232 2.53-.38 1.406-2.135 1.652-2.135 1.652s.858-.504.613-1.34c-.124-.421-.407-.54-1.325-.437-2.006.231-4.404 1.215-6.015.532-.83-.35-1.418-1.4-1.361-2.433.041-1.485 1.736-2.071 1.736-2.071V9.75c-.05-.219-.953-.16-1.151.243-.3.611.374.89.374.89s-.56.085-1.028-.461c-.228-.268-.705-1.203-.085-2.069.51-.714 1.12-.838 1.89-.923V4.19zm4.188 11.261s.714.192 1.235-.24c.578-.483.517-1.16.517-1.16v-4.27s-.335-.438-.868-.438c-.532 0-.884.453-.884.453v5.655zM71.5 4.241L70.319 3.19l-.57.455v3.958s.35.45.883.45.868-.432.868-.432v-3.38zm0 3.617s-.338.389-.87.389c-.533 0-.882-.392-.882-.392v1.689s.349-.392.881-.392c.533 0 .87.37.87.37V7.858z"/></g></svg>