<svg width="37" height="39" viewBox="0 0 37 39" xmlns="http://www.w3.org/2000/svg"><g fill="#0072C6" fill-rule="evenodd"><path d="M23.138 8.143v7.428l2.543 1.635c.067.02.212.021.28 0l10.943-7.532c0-.892-.815-1.53-1.274-1.53H23.138z"/><path d="M23.138 18.342l2.32 1.628c.327.245.721 0 .721 0-.392.245 10.726-7.294 10.726-7.294v13.652c0 1.486-.932 2.11-1.98 2.11H23.136V18.341h.002zm-12.015-3.424c-.791 0-1.421.38-1.887 1.137-.465.757-.698 1.76-.698 3.008 0 1.266.233 2.267.698 3.003.466.738 1.076 1.104 1.83 1.104.779 0 1.396-.358 1.852-1.074.455-.716.684-1.71.684-2.98 0-1.326-.22-2.357-.663-3.094-.443-.736-1.048-1.104-1.816-1.104z"/><path d="M.113 4.37v29.06l21.656 4.636V.092L.113 4.371zm14.491 19.444c-.915 1.229-2.108 1.845-3.58 1.845-1.435 0-2.603-.596-3.507-1.787-.903-1.192-1.356-2.744-1.356-4.658 0-2.021.459-3.656 1.377-4.904.917-1.248 2.133-1.872 3.646-1.872 1.43 0 2.586.596 3.468 1.791.883 1.195 1.324 2.77 1.324 4.725.002 2.01-.457 3.63-1.372 4.86z"/></g></svg>