<svg width="47" height="32" viewBox="0 0 47 32" xmlns="http://www.w3.org/2000/svg"><g fill="none" fill-rule="evenodd"><path d="M19.56 3.499a8.401 8.401 0 0 1 5.965-2.497 8.36 8.36 0 0 1 7.248 4.185 10.234 10.234 0 0 1 4.104-.844C42.48 4.343 47 8.79 47 14.277c0 5.486-4.537 9.934-10.123 9.934-.687 0-1.356-.07-1.989-.193-1.265 2.197-3.687 3.692-6.471 3.692a7.634 7.634 0 0 1-3.236-.721C23.898 29.925 20.897 32 17.408 32c-3.633 0-6.743-2.233-7.936-5.38a8.18 8.18 0 0 1-1.609.158c-4.338 0-7.845-3.446-7.845-7.719 0-2.848 1.573-5.345 3.923-6.681a8.505 8.505 0 0 1-.76-3.534C3.164 3.974 7.268 0 12.293 0c2.965 0 5.604 1.371 7.267 3.499" fill="#00A1E0"/><path d="M6.815 16.598l.199-.51c.036-.088.09-.053.126-.035.055.035.09.052.163.105.56.352 1.085.352 1.247.352.416 0 .687-.211.687-.51v-.018c0-.316-.397-.44-.867-.58l-.109-.035c-.633-.176-1.32-.44-1.32-1.213v-.018c0-.738.615-1.266 1.5-1.266h.091c.525 0 1.013.141 1.374.37.036.017.072.052.054.105-.018.053-.18.457-.198.51-.037.088-.127.035-.127.035a2.81 2.81 0 0 0-1.23-.299c-.379 0-.614.194-.614.457v.018c0 .299.416.44.886.58l.09.018c.633.193 1.302.457 1.302 1.213v.018c0 .808-.597 1.3-1.555 1.3-.47 0-.922-.07-1.41-.316-.09-.053-.18-.088-.27-.158-.019-.035-.055-.053-.019-.123zm14.1 0l.199-.51c.036-.088.108-.053.126-.035.055.035.09.052.163.105.56.352 1.085.352 1.247.352.416 0 .687-.211.687-.51v-.018c0-.316-.397-.44-.867-.58l-.109-.035c-.633-.176-1.32-.44-1.32-1.213v-.018c0-.738.615-1.266 1.5-1.266h.091c.525 0 1.013.141 1.374.37.036.017.072.052.054.105-.018.053-.18.457-.198.51-.037.088-.127.035-.127.035a2.81 2.81 0 0 0-1.23-.299c-.379 0-.614.194-.614.457v.018c0 .299.416.44.886.58l.09.018c.633.193 1.302.457 1.302 1.213v.018c0 .808-.597 1.3-1.555 1.3-.47 0-.922-.07-1.41-.316-.09-.053-.18-.088-.27-.158 0-.035-.037-.053-.019-.123zm10.448-2.409c.073.264.127.545.127.844 0 .299-.036.58-.127.844a1.741 1.741 0 0 1-.976 1.143 2.239 2.239 0 0 1-.867.158c-.326 0-.615-.053-.868-.158a1.594 1.594 0 0 1-.615-.457 1.797 1.797 0 0 1-.361-.686 3.177 3.177 0 0 1-.127-.844c0-.299.036-.58.127-.844a1.741 1.741 0 0 1 .976-1.143c.253-.105.542-.176.868-.176.325 0 .614.053.867.176.253.106.452.264.615.457.163.194.29.422.361.686zm-.813.826c0-.457-.09-.808-.253-1.055-.163-.246-.434-.369-.777-.369-.362 0-.615.123-.778.37-.162.246-.253.597-.253 1.054 0 .458.09.81.253 1.073.163.246.416.37.778.37.361 0 .614-.124.777-.37.18-.246.253-.615.253-1.073zm7.43 1.32l.198.527c.019.07-.036.087-.036.087-.307.124-.723.194-1.139.194-.705 0-1.229-.194-1.59-.58-.362-.387-.543-.915-.543-1.565 0-.3.037-.58.127-.844a1.863 1.863 0 0 1 1.048-1.143c.253-.106.56-.176.904-.176.235 0 .434.018.597.035.18.035.434.088.542.141.018 0 .072.035.054.088a8.525 8.525 0 0 1-.199.527c-.036.088-.09.053-.09.053a2.606 2.606 0 0 0-.85-.123c-.397 0-.705.123-.885.387-.2.246-.308.58-.308 1.037 0 .493.127.844.344 1.073.217.228.524.334.922.334.162 0 .307-.018.434-.035.126-.018.253-.053.38-.106-.019.035.053.018.09.088zm4.103-2.304c.18.598.09 1.107.072 1.143 0 .07-.072.07-.072.07h-2.73c.019.404.109.686.326.88.199.192.506.316.94.316.65 0 .922-.124 1.12-.194 0 0 .073-.017.11.053l.18.492c.036.088 0 .106-.018.123-.163.088-.579.264-1.374.264-.38 0-.723-.053-.994-.158a1.828 1.828 0 0 1-.687-.44 1.945 1.945 0 0 1-.398-.668 2.583 2.583 0 0 1-.126-.844c0-.299.036-.58.126-.844.072-.264.199-.492.362-.686.162-.193.38-.351.632-.457.253-.123.56-.176.904-.176.29 0 .56.053.777.159.163.07.344.193.525.387.09.07.253.334.325.58zm-2.711.562h1.934a1.377 1.377 0 0 0-.181-.633c-.163-.246-.398-.386-.76-.386-.36 0-.614.14-.777.386-.108.159-.162.37-.216.633zm-19.108-.562c.181.598.09 1.107.09 1.143 0 .07-.072.07-.072.07h-2.73c.019.404.11.686.326.88.199.192.506.316.94.316.65 0 .922-.124 1.12-.194 0 0 .073-.017.11.053l.18.492c.036.088 0 .106-.018.123-.163.088-.578.264-1.374.264-.38 0-.723-.053-.994-.158a1.828 1.828 0 0 1-.687-.44 1.945 1.945 0 0 1-.398-.668 2.583 2.583 0 0 1-.126-.844c0-.299.036-.58.126-.844.073-.264.2-.492.362-.686.163-.193.38-.351.633-.457.253-.123.56-.176.903-.176.29 0 .56.053.778.159a1.6 1.6 0 0 1 .524.387c.072.07.253.334.307.58zm-2.711.562h1.952a1.377 1.377 0 0 0-.18-.633c-.163-.246-.398-.386-.76-.386s-.615.14-.777.386c-.127.159-.181.37-.235.633zm-4.79-.14s.216.017.451.052V14.4c0-.352-.072-.527-.217-.633-.144-.105-.38-.176-.669-.176 0 0-.668 0-1.193.264-.018.018-.036.018-.036.018s-.072.017-.09-.036l-.199-.51c-.036-.07.018-.105.018-.105.253-.193.832-.299.832-.299.198-.035.524-.07.723-.07.542 0 .958.123 1.247.369.29.246.434.633.434 1.178v2.426s0 .07-.054.088c0 0-.109.035-.2.053-.09.018-.415.088-.686.123a4.28 4.28 0 0 1-.832.07 3.05 3.05 0 0 1-.723-.07 1.772 1.772 0 0 1-.56-.228 1.2 1.2 0 0 1-.362-.422c-.09-.159-.126-.37-.126-.598 0-.229.054-.44.144-.616.09-.175.235-.316.398-.44.163-.122.362-.193.56-.263.217-.053.434-.088.67-.088.216.018.36.018.47.018zm-1.085 1.863s.253.194.795.159c.398-.018.741-.088.741-.088v-1.213s-.343-.053-.74-.053c-.561 0-.796.193-.796.193-.163.106-.235.282-.235.51 0 .14.036.264.09.352.018.035.036.07.145.14zM34.726 13.1c-.018.07-.163.44-.2.563-.017.052-.053.07-.108.07 0 0-.162-.035-.307-.035a1.5 1.5 0 0 0-.361.052.954.954 0 0 0-.344.194c-.108.088-.18.228-.235.387a2.39 2.39 0 0 0-.09.703v1.97c0 .052-.036.087-.09.087h-.724c-.054 0-.09-.035-.09-.088v-3.956c0-.053.036-.088.072-.088h.705c.054 0 .073.035.073.088v.317c.108-.141.289-.264.451-.334.163-.07.362-.124.705-.106.181.018.416.053.452.07.073.018.109.036.09.106zm-6.707-1.829c.018 0 .073.035.054.088l-.216.563c-.019.035-.037.07-.127.035-.018 0-.054-.018-.145-.035-.054-.018-.144-.018-.217-.018-.108 0-.198.018-.289.035a.468.468 0 0 0-.235.141.88.88 0 0 0-.199.281c-.108.282-.144.58-.144.598h.867c.073 0 .09.035.09.088l-.108.545c-.018.088-.09.07-.09.07h-.904l-.578 3.394c-.073.352-.145.65-.235.897-.09.246-.2.422-.362.597a1.062 1.062 0 0 1-.506.335 1.9 1.9 0 0 1-.669.105c-.126 0-.253 0-.398-.035a1.059 1.059 0 0 1-.253-.07c-.036-.018-.054-.053-.036-.106.018-.053.181-.475.2-.545.035-.07.09-.035.09-.035.054.017.09.035.144.053a.904.904 0 0 0 .217.017.898.898 0 0 0 .325-.053.541.541 0 0 0 .253-.193c.073-.088.127-.211.2-.37.054-.157.108-.386.162-.65l.615-3.323h-.597c-.072 0-.09-.035-.09-.088l.108-.545c.018-.088.09-.07.09-.07h.615l.036-.176c.09-.527.271-.932.543-1.196.27-.263.668-.404 1.157-.404.144 0 .27.018.38.035a.444.444 0 0 1 .252.035zm-12.184 5.715c0 .052-.036.088-.072.088h-.723c-.054 0-.072-.036-.072-.088V11.34c0-.036.036-.088.072-.088h.723c.054 0 .072.035.072.088v5.644z" fill="#FFF" fill-rule="nonzero"/></g></svg>