<svg width="33" height="33" viewBox="0 0 33 33" xmlns="http://www.w3.org/2000/svg"><g fill="none" fill-rule="evenodd"><path d="M7 21.5C7 23.426 5.426 25 3.5 25A3.509 3.509 0 0 1 0 21.5C0 19.574 1.574 18 3.5 18H7v3.5zm1-.17C8 19.497 9.574 18 11.5 18s3.5 1.497 3.5 3.33v8.34c0 1.833-1.574 3.33-3.5 3.33S8 31.503 8 29.67v-8.34z" fill="#E01E5A"/><path d="M11.5 7A3.509 3.509 0 0 1 8 3.5C8 1.574 9.574 0 11.5 0S15 1.574 15 3.5V7h-3.5zm.17 1C13.503 8 15 9.574 15 11.5S13.503 15 11.67 15H3.33C1.497 15 0 13.426 0 11.5S1.497 8 3.33 8h8.34z" fill="#36C5F0"/><path d="M26 11.5C26 9.574 27.574 8 29.5 8S33 9.574 33 11.5 31.426 15 29.5 15H26v-3.5zm-1 .17c0 1.833-1.574 3.33-3.5 3.33S18 13.503 18 11.67V3.33C18 1.497 19.574 0 21.5 0S25 1.497 25 3.33v8.34z" fill="#2EB67D"/><path d="M21.5 26c1.926 0 3.5 1.574 3.5 3.5S23.426 33 21.5 33a3.509 3.509 0 0 1-3.5-3.5V26h3.5zm-.17-1C19.497 25 18 23.426 18 21.5s1.497-3.5 3.33-3.5h8.34c1.833 0 3.33 1.574 3.33 3.5S31.503 25 29.67 25h-8.34z" fill="#ECB22E"/></g></svg>