<svg width="120" height="17" viewBox="0 0 120 17" xmlns="http://www.w3.org/2000/svg"><g fill="none" fill-rule="evenodd"><path fill="#6486A3" d="M44.894 6.642v7.525H42.17V6.642h-2.75V4.247h8.226v2.395zm5.768 1.814c-.575 0-.898.397-.982 1.133h2.106c-.127-.75-.38-1.133-1.124-1.133zm3.341 2.72H49.68c.084.822.56 1.19 1.249 1.19.645 0 1.18-.14 1.91-.523l.967 1.63c-.912.537-1.853.85-3.004.85-2.218 0-3.439-1.588-3.439-3.87 0-2.564 1.432-3.882 3.37-3.882 2.02 0 3.284 1.347 3.284 4.11 0 .212 0 .368-.014.496zm4.701 3.146c-2.161 0-3.453-1.388-3.453-3.896 0-2.282 1.151-3.854 3.51-3.854 1.39 0 2.19.651 2.835 1.7l-1.74 1.331c-.351-.651-.59-.963-1.137-.963-.647 0-.97.652-.97 1.828 0 1.177.352 1.785 1.04 1.785.476 0 .813-.269 1.276-.963l1.601 1.26c-.856 1.276-1.657 1.772-2.962 1.772m8.618-.155V9.944c0-.964-.323-1.219-.842-1.219-.534 0-.857.255-.857 1.19v4.252h-2.526v-9.31l2.526-1.02v3.386c.463-.354.982-.652 1.853-.652 1.615 0 2.387 1.091 2.387 3.047v4.549h-2.541zm8.589.155c-2.92 0-4.478-2.182-4.478-5.115 0-3.189 1.853-5.115 4.492-5.115 2.415 0 3.37 1.048 4.043 2.919l-2.47.977c-.351-.92-.688-1.502-1.587-1.502-1.136 0-1.628 1.148-1.628 2.72 0 1.517.477 2.721 1.657 2.721.856 0 1.22-.467 1.754-1.402l2.302 1.232c-.66 1.304-1.755 2.565-4.085 2.565m10.301-4.789c-.323-.354-.687-.624-1.179-.624-.618 0-.997.298-.997 1.205v4.053H81.51v-7.44h2.526v.538c.436-.425.927-.694 1.573-.694.533 0 .899.128 1.193.312l-.59 2.65zm6.008 4.634v-.497c-.45.354-.983.652-1.839.652-1.615 0-2.387-1.09-2.387-3.047V6.727h2.542v4.223c0 .963.322 1.218.842 1.218.519 0 .842-.255.842-1.19V6.727h2.54v7.44h-2.54zm8.59 0V9.944c0-.964-.323-1.219-.843-1.219-.534 0-.857.255-.857 1.19v4.252h-2.526v-7.44h2.526v.496c.464-.354.983-.652 1.854-.652 1.614 0 2.386 1.091 2.386 3.047v4.549h-2.54zm7.465.155c-2.161 0-3.453-1.388-3.453-3.896 0-2.282 1.151-3.854 3.51-3.854 1.39 0 2.19.651 2.835 1.7l-1.74 1.331c-.351-.651-.59-.963-1.137-.963-.646 0-.97.652-.97 1.828 0 1.177.352 1.785 1.04 1.785.476 0 .813-.269 1.276-.963l1.601 1.26c-.856 1.276-1.657 1.772-2.962 1.772m8.618-.155V9.944c0-.964-.323-1.219-.842-1.219-.534 0-.857.255-.857 1.19v4.252h-2.526v-9.31l2.526-1.02v3.386c.463-.354.982-.652 1.853-.652 1.615 0 2.387 1.091 2.387 3.047v4.549h-2.541z"/><path fill="#A0CEDB" d="M0 0v5.667h5.614V17h5.614V5.667h5.614V0zm22.456 11.333V5.667h-5.614V17h16.842v-5.667zm0-5.666h11.228V0H22.456z"/></g></svg>