<svg width="34" height="29" viewBox="0 0 34 29" xmlns="http://www.w3.org/2000/svg"><path d="M34 3.433c-1.25.582-2.594.976-4.005 1.152A7.283 7.283 0 0 0 33.062.536 13.554 13.554 0 0 1 28.63 2.31C27.36.888 25.546 0 23.539 0c-3.85 0-6.973 3.278-6.973 7.32 0 .575.06 1.132.18 1.668-5.798-.306-10.937-3.217-14.38-7.652a7.59 7.59 0 0 0-.943 3.685c0 2.538 1.231 4.78 3.103 6.093a6.73 6.73 0 0 1-3.161-.913v.09c0 3.548 2.405 6.508 5.598 7.178a6.509 6.509 0 0 1-1.838.258c-.45 0-.888-.044-1.313-.13.888 2.907 3.462 5.025 6.516 5.081-2.387 1.965-5.397 3.136-8.664 3.136-.562 0-1.12-.033-1.664-.1C3.087 27.787 6.755 29 10.693 29 23.525 29 30.54 17.846 30.54 8.171c0-.318-.006-.637-.018-.949A14.52 14.52 0 0 0 34 3.433" fill="#00AAEC" fill-rule="evenodd"/></svg>