<svg width="119" height="22" viewBox="0 0 119 22" xmlns="http://www.w3.org/2000/svg"><g fill="none" fill-rule="evenodd"><path d="M26.1 12.936V5.49h3.404v6.48c0 1.282.134 2.53 1.845 2.53 1.709 0 1.845-1.248 1.845-2.53V5.49h3.404v7.446c0 2.88-1.88 4.48-5.25 4.48-3.47 0-5.248-1.6-5.248-4.48m11.413 2.78l1.644-2.23c.608.716 1.624 1.365 2.792 1.365.881 0 1.405-.367 1.405-1.052 0-.814-.762-1.05-2.047-1.43-1.729-.517-3.251-1.398-3.251-3.414 0-2.215 1.845-3.698 4.452-3.698 1.811 0 3.183.548 4.047 1.35l-1.541 2.23a3.153 3.153 0 0 0-2.335-1.015c-.882 0-1.256.35-1.256.815 0 .734.898.934 1.882 1.234 1.928.598 3.418 1.466 3.418 3.614 0 2.249-1.642 3.93-4.605 3.93-2.184 0-3.877-.916-4.605-1.699m16.983-2.88l-.913-2.816a10.358 10.358 0 0 1-.408-1.748h-.1c-.069.499-.22 1.2-.408 1.748l-.913 2.816h2.742zm-3.2-7.347h3.742l4.42 11.695h-3.54l-.558-1.685h-4.488l-.54 1.685h-3.455l4.42-11.695zm13.108 2.716h-2.93V5.49h9.262v2.715h-2.93v8.976h-3.402zm16.12 3.147c0-2.1-1.39-3.18-3.048-3.18-1.626 0-3.014 1.08-3.014 3.18 0 2.084 1.388 3.15 3.014 3.15 1.658 0 3.048-1.066 3.048-3.15m-9.55 0c0-2.882 2.1-6.096 6.518-6.096 4.436 0 6.534 3.214 6.534 6.096 0 2.865-2.098 6.063-6.534 6.063-4.418 0-6.519-3.198-6.519-6.063m17.677 3.132h.729c2.183 0 3.354-1.032 3.354-3.147 0-2.117-1.17-3.15-3.354-3.15h-.728v6.297zm-3.403-8.993h4.386c4.2 0 6.603 2.198 6.603 5.846 0 3.58-2.47 5.847-6.603 5.847h-4.386V5.49zm18.137 7.345l-.914-2.816a10.358 10.358 0 0 1-.407-1.748h-.103a10.205 10.205 0 0 1-.407 1.748l-.912 2.816h2.743zm-3.2-7.347h3.743l4.416 11.695h-3.538l-.559-1.685h-4.488l-.539 1.685h-3.456l4.421-11.695zm10.26 7.53l-4.435-7.53h3.727l1.605 2.881c.339.618.813 1.551.917 2.166h.067c.1-.615.574-1.548.912-2.166l1.612-2.882h3.62l-4.436 7.53v4.165h-3.59v-4.164z" fill="#6685A5"/><path d="M21.377 11.3c0 5.806-4.786 10.514-10.69 10.514C4.787 21.814 0 17.106 0 11.3 0 5.492 4.786.785 10.688.785c5.903 0 10.689 4.707 10.689 10.515" fill="#A8D0DF"/></g></svg>