<svg width="146" height="17" viewBox="0 0 146 17" xmlns="http://www.w3.org/2000/svg"><path d="M23.939.832c.153.053.256.106.204.316-.051.368-.613.21-.921.315-.767.263-.512 1.314-.614 2.05v10.405c0 .421-.05.893.256 1.052.205.314.819.104 1.228.157.615-.106.87-.788 1.28-1.104.153-.578.409-1.05.512-1.63.307-1.05.153-2.416.511-3.468.204-.052.256.106.307.264v5.832c.102.158-.051.42-.051.579l-.46.105h-5.682c-.204-.051-.511 0-.613-.21.051-.578.972-.316.972-1V7.086c-.052-.946 0-2.154 0-3.047 0-.894.256-2.103-.359-2.576-.255-.263-1.074.157-.972-.42.052-.105.102-.158.256-.21h4.146zm20.574.788c.204.158.46 0 .562-.052.205-.21 0-.736.41-.683l.255.053v5.518c-.102.052 0 .367-.153.367h-.307c-.102-1.997-.256-4.046-1.689-4.992a1.691 1.691 0 0 0-.87-.263c-.614.052-.972.526-1.229.999-.357.577-.255 1.682.052 2.207.768 1.103 1.996 1.734 2.917 2.628.92.999 1.996 2.05 2.047 3.73.154 1.84-.46 3.364-1.638 4.363-.665.472-1.689.526-2.456.21l-1.075-.736c-.256-.104-.307.158-.409.263 0 .314-.051.526-.256.631l-.358-.105-.051-3.048V9.293a.705.705 0 0 1 .46 0c.102 2.155.154 4.414 1.689 5.519.46.315 1.024.578 1.689.367.972-.42 1.33-1.523 1.33-2.732-.102-1.052-.512-1.84-1.228-2.417-.972-1.209-2.405-1.84-3.326-3.154-.256-.315-.256-.736-.46-1.103-.513-1.735.153-3.47 1.125-4.52.46-.315 1.177-.525 1.79-.368.462.158.87.42 1.179.735M4.03.885c.103.052.256.052.307.263-.153.368-.614.368-.768.683-.153.315-.153.894-.05 1.261l.614 3.732c.256 1.208.511 2.469.818 3.679h.154c.41-1.787.717-3.575 1.023-5.361-.306-1.366-.05-3.206-1.279-3.836-.102-.263.052-.421.307-.421.717.052 3.02 0 3.583.052a.593.593 0 0 1 0 .42c-.41.159-.87.106-1.126.474-.563.946.204 1.945.153 3.048L8.38 8.19c.154.735.154 1.628.563 2.208h.052l.767-3.417c.41-1.419.614-2.943.922-4.414.102-.473-.052-.788-.359-.999-.205-.21-.563-.158-.87-.21a.593.593 0 0 1 0-.42c.767 0 3.122-.053 3.43 0 .153.052.101.315.05.42-.46.105-.92.21-1.177.526-.307.84-.46 1.734-.665 2.574l-.87 4.1c-.512 2.259-1.075 4.572-1.586 6.884-.103.158-.359.158-.462.053-.307-.42-.307-1.104-.46-1.681l-.767-4.521-.41-1.892h-.102l-.614 3.102a653.247 653.247 0 0 0-.921 4.625c-.052.314-.257.525-.667.419-.357-.105-.204-.577-.306-.893l-.256-1.682-.768-4.151-.511-2.996c-.154-1.209-.461-2.418-.717-3.574-.051-.315-.358-.525-.563-.735C.755 1.41.448 1.568.09 1.358c-.103-.105-.154-.42.05-.473h3.89zm27.841 0c.051.105.154.315.051.42-.46.21-1.228 0-1.33.58-.102 1.628-.102 2.837-.102 4.466l-.052 6.411h-.051c.307.788-.41 2.366.716 2.417.257.053.768.053 1.024-.105 1.024-.841 1.33-2.26 1.536-3.679.153-.735.05-1.628.256-2.365a.56.56 0 0 1 .409 0v6.412l-.052.263c-.819 0-1.689 0-2.303.053l-2.917-.053H27.47c-.256 0-.153-.368-.103-.526.512-.051 1.127 0 1.382-.42.205-.79.052-1.84.154-2.68-.102-.735.051-1.523-.05-2.365l.05-.684V2.303c-.05-.262-.205-.577-.359-.735-.307-.368-1.534.158-1.074-.683h4.401zM53.52.938l.102.262v6.045c-.05.157-.154.21-.256.262l-.256-.105c.051-1.892-.204-3.574-.717-5.098-.102-.315-.358-.578-.665-.736-.255 0-.512 0-.614.21v11.194h-.051c.051.788-.102 1.786.46 2.156.359.263.973-.158 1.025.42 0 .42-.564.105-.82.262h-1.125v-.052c-.359.158-.717-.105-1.024.052-.307-.052-.972-.052-1.433-.052-.154-.053-.102-.367-.051-.474.563-.105 1.177-.156 1.382-.788V1.884c-.103-.264-.256-.316-.461-.369-.768.21-.972 1.052-1.177 1.84-.256 1.156-.46 2.313-.359 3.732-.102.158 0 .42-.255.42l-.307-.105V1.043c.665-.21 5.015-.158 6.602-.105m16.889 0c.358.158.153.893.204 1.26.154.842-.102 1.788.051 2.523-.153.315.051.526 0 .84-.102.37 0 .895-.102 1.21-.717.052-.358-.893-.461-1.366-.154-1.63-.716-3.101-2.047-3.785-.46-.157-1.228-.157-1.535.211-.307.946-.153 2.523-.153 3.416-.103.315.05.42 0 .788v1.472c.05.157-.052.578.307.525 1.228-.578 1.381-2.05 1.381-3.521 0-.21.102-.315.41-.263l.05.315c-.101.684.103 1.525-.05 2.26 0 .736 0 1.735.05 2.523a24.226 24.226 0 0 0 0 2.733c0 .21-.101.315-.306.315-.358-.315-.103-1.208-.256-1.682-.205-.893-.41-1.944-1.382-2.154l-.154.105c-.102 1.156-.05 1.997-.05 3.049 0 .944.05 2.153 0 3.1.307.63 1.074.367 1.79.367 1.28-.577 1.74-2.154 1.996-3.626l.615.159V15.6l-.154.158-5.936.052c-.41-.105-1.127.053-1.536-.105-.153-.84.82-.264 1.126-.577.205-.106.307-.317.41-.526V2.199c-.103-.263-.257-.526-.461-.631-.358-.157-1.126.158-1.075-.472l.102-.158h7.166zm7.42 0c.256.158.973-.106 1.126.21 0 1.944.052 3.626 0 5.518-.051.157-.307.157-.41.052-.204-2.049-.153-4.467-1.995-5.203-.41-.157-.87.053-1.28.053-.256.263-.46.474-.46.894v5.097c.051.158.102.263.256.263 1.381-.368 1.28-2.102 1.484-3.52.05-.106.307-.106.409 0v2.154c.103.104 0 .104 0 .315.103.474 0 .84.051 1.42v1.418c-.153.788.052 1.787-.153 2.522-.103.106-.307.053-.358-.105-.103-1.209-.103-2.784-1.024-3.52-.102-.106-.409-.106-.563 0l-.102.367v3.416h.051c.05.841-.307 2.207.307 2.733.41.21.972.262 1.484.157 1.126-.368 1.433-1.577 1.843-2.627-.103-.421.153-.84.153-1.314l.103-1.682c.102-.105.204-.158.358-.052l.103.105c-.155.788.307 2.05-.41 2.366-.051.209-.307.209-.307.472.205-.21.46-.42.665-.735h.102l-.05 3.046c-.103.37.152.947-.257 1.052-.87.106-1.69.053-2.559.053-1.638-.105-3.172-.053-4.76-.053-.153-.052-.153-.369-.05-.472.46-.16 1.074-.054 1.381-.527.46-.366.204-1.418.257-2.102.05-1.156-.103-2.68 0-3.73l-.053-2.996V2.25c-.152-.42-.46-.788-.97-.788-.309 0-.667.052-.564-.367.051-.21 5.373-.158 6.192-.158m8.957.158l.102.158.05 4.047c-.152.682 0 1.523-.1 2.206-.155.158-.308 0-.411-.052l-.154-2.575c-.204-1.209-.409-2.312-1.075-3.153-.152-.158-.512-.158-.614 0l-.205.21v12.771c.103.735 1.128.314 1.537.63.05.263-.052.421-.257.473-1.33.157-2.66-.105-3.991 0-.307.053-.307-.315-.205-.473.46-.104 1.024-.053 1.177-.526l.051-5.885V1.988c-.102-.157-.204-.315-.41-.367-.92.105-.971 1.05-1.228 1.734l-.409 2.838c-.102.473.102 1.104-.153 1.367l-.308-.054-.05-2.943c0-1.05-.052-2.364.05-3.415.36-.263 5.733-.105 6.603-.053m11.054-.052c.256-.053.307.21.205.367-.512.106-1.024.106-1.331.474-.359.84.051 1.944-.102 2.838.05.157-.052.472 0 .735.05.683 0 1.471 0 2.102v5.885c-.307 1.052-.768 2.103-1.792 2.365-1.024.263-1.688-.21-2.15-.735-.562-.841-1.176-1.944-.716-3.205.205-.474.563-.736 1.075-.788.256.105.563.21.665.472-.05.473.257.998-.05 1.314-.052.422-.615.422-.615.894.051.63.308 1.155.819 1.367.46.104.716-.107.972-.37.36-1.05.154-2.732.154-3.888l.05-3.048V2.41c-.102-.316-.204-.579-.46-.842-.306-.262-1.023.105-1.177-.315l.154-.316c1.586 0 2.712.158 4.3.106m11.207.052c.205-.104.614-.158.768.105.05.316-.154.368-.359.42-.307 0-.512.158-.716.316-.205.367-.205.894-.205 1.42v5.99l-.051.052c.102 1.577 0 2.628.102 4.258.154.63.512 1.21 1.075 1.523.46.105 1.074.054 1.382-.314.512-.37.615-.947.717-1.526V8.085l-.052-.315.052-4.625c.05-.473-.052-.999-.307-1.367-.257-.21-.718-.21-1.025-.262l.052-.368 2.713-.053c.153 0 .255.158.255.263 0 .263-.41.105-.512.21-.255.053-.511.263-.511.526l-.154.84v10.51c-.102.895-.613 1.63-1.228 2.156-.41.367-1.228.21-1.689.316-1.024-.211-1.894-.946-2.201-1.946-.614-1.314-.204-3.467-.358-4.887v-6.78c-.102-.315-.256-.525-.512-.682-.256-.105-.716 0-.716-.316-.052-.314.307-.157.46-.262l3.02.052zm15.762 0c.103.105.308.158.36.315 1.023 2.944 1.79 5.992 2.968 8.83.307-.053-.103-.368.102-.526-.052-1.104.05-2.154-.052-3.311.102-.63 0-1.103.052-1.787-.154-.105.103-.262-.052-.315.102-.63-.05-1.525-.05-2.26-.257-.368-.717-.473-1.23-.473 0-.052-.1-.368.103-.42h2.97c.203.052.101.262.101.42-.307.158-.768.105-.973.42l-.204.526-.05 2.837v8.988c-.053.42.05 1.103-.053 1.524-.102.104-.357.158-.46.053-.358-.474-.307-1.263-.665-1.735-.563-1.419-.87-3.048-1.434-4.414l-1.022-2.996c-.155-.526-.41-.946-.565-1.42l-.102.054c-.152.63-.152 1.156-.05 1.786l-.052 2.84v4.676c.102.263.204.526.46.684.257.156.872-.158.872.314l-.053.211-2.865.051c-.204-.051-.46-.051-.46-.314.204-.42 1.074 0 1.28-.525.203-.42.203-1 .203-1.577l-.051-6.045V2.461c-.102-.735-.818-.788-1.381-.945-.155-.106 0-.263 0-.368.767-.105 1.535-.053 2.354-.053m17.759.053c.204.052.409.105.409.367-.102.369-.767.158-1.023.369-.36.158-.36.63-.461.946v11.719c-.154.368.102.63.307.842.41.262 1.33.21 1.842.05.82-.524.973-1.576 1.331-2.522l.358-2.733c.052-.105.257-.105.41 0v4.889h-.052c0 .263.051.683-.05.946-.256.105-.666 0-.87.052l-.154-.052-2.764.052c-1.075-.052-2.251.104-3.122-.157-.102-.053-.102-.263-.05-.369.306-.21.971.053 1.125-.42l.051-.525V2.199c-.255-.526-.82-.579-1.331-.579 0-.21-.102-.42.103-.472h3.94zm-39.613 1.366c-.307-.578-.716-1.05-1.484-.998-.716.157-1.023.946-1.228 1.628 0 1.525.051 2.524 0 3.837-.05.263.205.421 0 .683.102.053 0 .368.102.42-.102.841-.05 1.735-.102 2.523.205.683-.05 1.314 0 2.05-.05.894.102 1.892.87 2.417.358.21.973.263 1.331-.053.256-.42.511-.788.614-1.314l.05-6.831-.05-.053v-3.31l-.103-.999zm.922-.052c.666.945.87 2.312 1.177 3.626.358 2.733.103 5.886-.922 7.882a4.562 4.562 0 0 1-1.636 1.788c-.615.158-1.536.21-1.946-.212-1.944-1.839-2.405-4.73-2.354-8.092.103-2.26.768-4.414 2.047-5.938.512-.578 1.485-.736 2.303-.473.512.368 1.024.841 1.33 1.419zM59.2 1.62c-.358 0-.665-.157-.973-.052-.46 0-.613.368-.665.736l.052 5.36c.41.158 1.28.21 1.688-.052.359-.316.615-.683.717-1.156.052-1.682.615-3.942-.819-4.836zm.41-.682a3.3 3.3 0 0 1 1.996 1.629c.358 1.155.562 3.048-.154 4.046-.358.526-.767.999-1.33 1.367-.103.367.255.367.46.682.717.527.82 1.736.82 2.682 0-.107-.103-.211-.154-.107-.052.158.051.263.204.263.052.894-.102 1.893.103 2.681a.464.464 0 0 0 .306.315c.257-.052.307-.315.41-.473-.051-.472.05-.997.102-1.471.154.105.308-.21.41 0 .102 1.209.051 2.469-.717 3.048-.307.21-.614.316-1.075.263a1.96 1.96 0 0 1-1.125-.894l-.154-.999v-3.784c-.153-.735-.307-1.524-1.023-1.733-.308-.106-.819-.21-1.075 0l-.102.21v5.833c.102.316.204.578.46.683.255.053.614 0 .563.42l-.103.159-2.66.051c-.103 0-.256-.105-.308 0-.256-.21-1.125.264-.921-.367 0-.368.461-.105.665-.263.256-.052.41-.314.563-.472 0-.263.154-.579.052-.842l.05-3.048c0-1.26-.05-2.47 0-3.573 0-.788 0-1.892-.05-2.733.05-.525 0-1.313.05-1.84-.102-.473-.204-.945-.613-1.103-.256-.105-.717.052-.82-.21-.05-.21 0-.368.206-.42h4.963zm59.93 1.524c-.462-.578-.973-1.103-1.946-.894a.86.86 0 0 0-.563.631c0 1.997 0 3.521.052 5.518.511.157 1.433.157 1.842 0 .46-.21.615-.683.768-1.209l.05-2.786c-.05-.366-.05-.892-.203-1.26m-2.252-1.314c1.535-.21 3.07.105 3.684 1.366.512.842.819 2.155.461 3.312-.46.84-.818 1.891-1.74 2.31 0 .474.511.58.716.947.206.422.41.79.41 1.366l.102 2.681c0 .473-.05 1.26.41 1.472.614-.211.46-1.157.563-1.84.051-.052.256-.052.307 0 .153 1.157-.102 2.259-.768 2.942-.358.16-.818.369-1.229.212-.46 0-.46-.526-.767-.789l-.154-1.524v-3.048c-.05-.683-.102-1.472-.614-1.839-.358-.316-1.023-.421-1.535-.21l-.103.156c-.204 2.05.052 3.732 0 5.887.052.316.103.683.461.841.307.052.46 0 .82.105.05.105 0 .263.05.42l-2.712.052-1.485-.104c-.102-.105-.102-.368 0-.421.462 0 .82-.158 1.076-.421l.153-.525V2.409c-.103-.316-.153-.63-.46-.789-.257-.104-.717.053-.717-.315.153-.367.46-.052.82-.21.766.053 1.38.053 2.25.053m16.223 4.414l-.204-.052c-.153.367-.204.841-.307 1.261l-.409 2.785a12.37 12.37 0 0 0-.307 1.84l.255.157 2.048-.053.102-.105c-.256-2.048-.87-3.836-1.177-5.833zm1.28-1.786c.205 1.471.666 2.785.82 4.309l.921 4.362c.307 1.051.256 2.418 1.228 2.943.256.052.563.052.41.472l-.052.105c-1.178.053-2.764.105-3.991-.051-.257-.737.613-.421.92-.632.256-.21.307-.63.256-1.103-.153-.737-.256-1.524-.563-2.102-.818-.053-1.791-.053-2.508.051-.204.263-.255.685-.307 1.105-.102.63-.512 1.577.103 2.102.256.263 1.279-.21.92.579-.818.156-1.79.104-2.609.104-.256-.104-.819.105-.665-.42 0-.316.51-.105.665-.21.46-.262.665-.736.767-1.209l.614-3.574.768-4.52.46-2.627c.155-.789.257-1.681.615-2.312l.666.052.562 2.576zM15.392 8.348l-.563-2.629-.103-.052-.358 1.945-.46 2.995-.052.684.41.053c.563-.158 1.28.261 1.637-.158l-.511-2.838zm.307-7.095c.204 1.419.614 2.68.82 4.151l1.074 5.413c.256 1.209.358 2.418.665 3.522.154.473.46.789.973.84 0 .158.153.263.05.368l-.153.158h-3.02c-.103-.158-.613 0-.818-.158-.154-.789.972-.157 1.074-.735.256-.263.154-.788.103-1.104-.256-.525-.05-1.42-.564-1.787h-2.047l-.205.105c-.05.946-.715 1.998-.153 2.944.205.158.615.104.768.262l-.051.315-2.918.053c-.307.105-.255-.368-.153-.472.615.051.973-.263 1.28-.579.358-.841.358-1.892.614-2.838l.563-3.679.512-3.047c.255-1.263.409-2.575.665-3.89.051-.263 1.023-.42.921.158z" fill="#6A84A6" fill-rule="evenodd"/></svg>