<svg width="46" height="34" viewBox="0 0 46 34" xmlns="http://www.w3.org/2000/svg"><g fill="none" fill-rule="evenodd"><path d="M17.064.008c9.669 0 17.056 7.356 17.056 16.99 0 9.633-7.387 16.991-17.056 16.991-9.67 0-17.056-7.358-17.056-16.992C.008 7.364 7.395.008 17.064.008z" fill="#6B0094"/><path d="M16.331 11.171c.04-.59.081-1.176.162-1.762H3.518v1.762c1.304.084 2.57.21 3.877.294a6121.94 6121.94 0 0 0 7.384 9.227v4.742c-1.387.127-2.775.21-4.162.337v1.55H23.43v-1.55c-1.388-.087-2.775-.127-4.162-.17.042-1.676.081-3.396.123-5.075 2.405-2.183 4.774-4.363 7.14-6.545 1.223-.084 2.448-.167 3.712-.293V11.63c-3.63.044-7.222.084-10.852.167v1.723c1.345.083 2.693.123 4.039.167-1.754 1.552-3.51 3.062-5.264 4.615-1.796-2.266-3.591-4.572-5.387-6.838a97.99 97.99 0 0 1 3.552-.294z" fill="#FFF"/><path d="M45.995 1.69c-3.306-.17-6.57-.336-9.834-.506-.165 8.015-.327 16.07-.489 24.084 1.55.166 3.14.333 4.69.503 1.877-8.055 3.757-16.069 5.633-24.08zM35.222 33.95h5.63v-4.822c-2.04-.17-4.078-.337-6.12-.504.162 1.803.327 3.566.49 5.326z" fill="#6B0094"/></g></svg>